<svg version="1.1" id="Layer_1" xmlns="http://www.w3.org/2000/svg" xmlns:xlink="http://www.w3.org/1999/xlink" x="0px" y="0px"
	 width="50%" viewBox="0 0 1159 233" enable-background="new 0 0 1159 233" xml:space="preserve">
<path fill="none" opacity="1.000000" stroke="yellow" stroke-linecap="round" stroke-linejoin="round" stroke-width="2.000000"
	d="
M609.500000,136.000000 
	C611.018921,134.927994 612.753479,135.011246 614.499817,134.986099 
	C623.833618,134.851761 633.161865,135.047012 642.504517,134.592529 
	C655.120544,133.978806 666.926025,122.608345 669.522705,112.505836 
	C670.666016,108.057693 670.969177,103.540283 670.980774,98.999954 
	C671.027283,80.833405 671.001709,62.666668 670.998962,44.500000 
	C670.998169,39.007420 670.992554,39.001106 665.500000,39.000969 
	C603.833313,38.999439 542.166687,39.000000 480.154602,39.000000 
	C478.089905,45.548687 480.834961,51.246517 484.086884,56.445660 
	C491.178711,67.784058 502.285797,71.066238 515.000061,71.035248 
	C554.499878,70.938972 594.000000,70.999138 633.500000,71.000984 
	C638.992554,71.001244 639.037964,71.007858 638.985229,76.499855 
	C638.945251,80.669327 639.048950,84.825401 638.567932,89.007812 
	C637.710876,96.459267 632.482056,101.921661 624.998779,102.483643 
	C621.505981,102.745964 618.000122,102.975685 614.500000,102.978363 
	C571.166687,103.011497 527.833313,102.999207 484.500000,103.000977 
	C479.007416,103.001205 479.001434,103.007431 479.001007,108.500000 
	C478.998840,136.833328 478.998840,165.166672 479.001007,193.500000 
	C479.001434,198.992584 479.007416,198.996307 484.500000,198.999084 
	C491.833344,199.002792 499.171967,198.835388 506.497711,199.071075 
	C510.036652,199.184937 511.101135,198.029282 511.071259,194.499390 
	C510.917480,176.334030 511.115692,158.165359 510.909882,140.001022 
	C510.864563,136.000000 511.996094,134.827820 516.001831,134.908981 
	C528.330078,135.158752 540.668457,135.117126 552.999023,134.933563 
	C557.064880,134.873047 560.093750,135.895233 563.075806,138.925400 
	C581.591919,157.740234 600.408081,176.259766 618.924194,195.074600 
	C621.906250,198.104782 624.934570,199.134903 629.001099,199.066330 
	C640.331238,198.875336 651.666687,198.991943 663.000000,199.007874 
	C664.904663,199.010559 666.816345,199.156525 668.562500,197.889801 
	C668.288879,195.350525 666.072693,194.121918 664.478638,192.521286 
	C647.679932,175.653503 630.818848,158.847702 614.022583,141.977509 
	C612.359741,140.307343 610.140808,139.036316 609.500000,136.500000 
"/>
<path fill="none" opacity="1.000000" stroke="yellow" stroke-linecap="round" stroke-linejoin="round" stroke-width="2.000000"
	d="
M893.500000,39.000000 
	C832.000000,39.000000 770.500000,39.010456 709.000000,38.984158 
	C702.707275,38.981464 702.931396,38.706997 702.986084,45.000122 
	C703.046875,51.999592 703.226196,59.010143 702.912842,65.996094 
	C702.732788,70.011688 704.004028,71.100433 708.000305,71.086533 
	C748.666504,70.944939 789.333374,71.042030 829.999939,70.974854 
	C842.500061,70.954208 855.008545,71.426956 867.500549,70.507195 
	C881.091980,69.506493 895.066956,55.258728 894.482178,41.500755 
	C894.453613,40.828228 894.166626,40.166676 893.999939,39.500011 
"/>
<path fill="none" opacity="1.000000" stroke="yellow" stroke-linecap="round" stroke-linejoin="round" stroke-width="2.000000"
	d="
M222.500000,39.000000 
	C161.000000,39.000000 99.499992,39.010456 38.000008,38.984158 
	C31.707336,38.981468 31.931414,38.706970 31.986076,45.000122 
	C32.046879,51.999592 32.226173,59.010143 31.912861,65.996094 
	C31.732765,70.011688 33.004009,71.100441 37.000301,71.086533 
	C77.666473,70.944946 118.333405,71.042030 158.999954,70.974861 
	C171.500015,70.954216 184.008530,71.426964 196.500534,70.507202 
	C210.092026,69.506493 224.066956,55.258698 223.482254,41.500755 
	C223.453674,40.828217 223.166672,40.166668 223.000000,39.500000 
"/>
<path fill="none" opacity="1.000000" stroke="yellow" stroke-linecap="round" stroke-linejoin="round" stroke-width="2.000000"
	d="
M446.500000,39.000000 
	C383.500000,39.000000 320.500000,39.000000 257.154602,39.000000 
	C255.089890,45.548687 257.836060,51.245789 261.087616,56.445206 
	C267.932434,67.390388 278.612518,71.026466 291.000000,71.014618 
	C331.666626,70.975723 372.333740,70.899094 412.999786,71.053276 
	C427.763336,71.109245 438.802429,65.166870 445.372162,51.936512 
	C447.204895,48.245663 448.543701,43.911911 447.000000,39.500000 
"/>
<path fill="none" opacity="1.000000" stroke="yellow" stroke-linecap="round" stroke-linejoin="round" stroke-width="2.000000"
	d="
M1116.500000,39.000000 
	C1053.500000,39.000000 990.500000,39.000000 927.154602,39.000000 
	C925.089905,45.548687 927.836060,51.245789 931.087646,56.445206 
	C937.932434,67.390381 948.612488,71.026466 961.000000,71.014618 
	C1001.666687,70.975723 1042.333740,70.899094 1082.999756,71.053276 
	C1097.763306,71.109245 1108.802368,65.166832 1115.372070,51.936478 
	C1117.204834,48.245632 1118.543701,43.911911 1117.000000,39.500000 
"/>
<path fill="none" opacity="1.000000" stroke="yellow" stroke-linecap="round" stroke-linejoin="round" stroke-width="2.000000"
	d="
M446.500000,167.000000 
	C383.500000,167.000000 320.500000,167.000000 257.154602,167.000000 
	C255.089890,173.548691 257.836060,179.245789 261.087616,184.445206 
	C267.932404,195.390381 278.612518,199.026459 291.000000,199.014603 
	C331.666626,198.975723 372.333740,198.899094 412.999786,199.053268 
	C427.763336,199.109238 438.802429,193.166870 445.372162,179.936508 
	C447.204865,176.245651 448.543701,171.911911 447.000000,167.500000 
"/>
<path fill="none" opacity="1.000000" stroke="yellow" stroke-linecap="round" stroke-linejoin="round" stroke-width="2.000000"
	d="
M446.500000,103.000000 
	C383.500000,103.000000 320.500000,103.000000 257.154602,103.000000 
	C255.089890,109.548691 257.836060,115.245781 261.087616,120.445206 
	C267.932434,131.390381 278.612518,135.026459 291.000000,135.014603 
	C331.666626,134.975723 372.333740,134.899094 412.999786,135.053268 
	C427.763336,135.109238 438.802429,129.166870 445.372162,115.936516 
	C447.204895,112.245667 448.543701,107.911911 447.000000,103.500000 
"/>
<path fill="none" opacity="1.000000" stroke="yellow" stroke-linecap="round" stroke-linejoin="round" stroke-width="2.000000"
	d="
M34.000000,103.000000 
	C31.442886,103.659798 32.008495,105.728767 32.007374,107.500008 
	C31.995487,126.333336 32.070381,145.167023 31.977375,163.999893 
	C31.905050,178.644760 37.435020,189.990082 51.032227,196.431976 
	C56.155613,198.859268 61.914223,198.957870 67.500046,198.964569 
	C117.999969,199.025101 168.500122,198.955307 218.999786,199.085678 
	C222.995514,199.095993 224.111053,197.997208 224.088074,193.999496 
	C223.923340,165.333771 223.923340,136.666229 224.088074,108.000504 
	C224.111038,104.002800 222.996017,102.899460 218.999695,102.913452 
	C178.500198,103.055275 138.000000,103.000000 97.154610,103.000000 
	C95.089890,109.548691 97.837982,115.244240 101.086716,120.445839 
	C108.051117,131.596680 118.957932,135.074875 131.500092,135.020645 
	C149.999741,134.940659 168.501251,135.113892 186.999008,134.909943 
	C190.999847,134.865829 192.248230,135.989532 192.088425,140.003525 
	C191.783691,147.658066 191.883423,155.335968 192.057068,162.998703 
	C192.127121,166.089401 191.083710,167.061646 187.999863,167.054214 
	C152.666748,166.969055 117.332878,167.102234 82.000259,166.942871 
	C70.118912,166.889267 66.996254,162.276321 65.110023,156.464294 
	C64.148483,153.501495 64.072296,150.168869 64.045654,146.999619 
	C63.936359,134.000534 63.847546,120.997147 64.091003,108.001701 
	C64.166039,103.996689 63.009575,102.764145 58.996742,102.910858 
	C50.840973,103.209038 42.666668,103.000000 34.500000,103.000000 
"/>
<path fill="none" opacity="1.000000" stroke="yellow" stroke-linecap="round" stroke-linejoin="round" stroke-width="2.000000"
	d="
M705.000000,103.000000 
	C702.442871,103.659798 703.008423,105.728767 703.007324,107.500008 
	C702.995422,126.333336 703.070374,145.167023 702.977356,163.999893 
	C702.905029,178.644760 708.435059,189.990097 722.032227,196.432007 
	C727.155640,198.859283 732.914246,198.957870 738.500061,198.964569 
	C789.000000,199.025085 839.500122,198.955307 889.999756,199.085693 
	C893.995483,199.095993 895.111084,197.997208 895.088074,193.999496 
	C894.923340,165.333771 894.923340,136.666229 895.088074,108.000504 
	C895.111023,104.002800 893.995972,102.899452 889.999695,102.913452 
	C849.500183,103.055275 809.000000,103.000000 768.154602,103.000000 
	C766.089905,109.548691 768.837952,115.244240 772.086731,120.445847 
	C779.051147,131.596680 789.957947,135.074875 802.500061,135.020645 
	C820.999756,134.940659 839.501282,135.113892 857.999023,134.909943 
	C861.999817,134.865829 863.248230,135.989532 863.088379,140.003525 
	C862.783691,147.658066 862.883362,155.335968 863.057068,162.998703 
	C863.127075,166.089401 862.083679,167.061646 858.999878,167.054214 
	C823.666748,166.969055 788.332825,167.102249 753.000244,166.942871 
	C741.118835,166.889282 737.996277,162.276184 736.110046,156.464294 
	C735.148438,153.501511 735.072266,150.168869 735.045654,146.999619 
	C734.936401,134.000534 734.847473,120.997139 735.090942,108.001701 
	C735.165955,103.996689 734.009521,102.764137 729.996765,102.910851 
	C721.840942,103.209030 713.666687,103.000000 705.500000,103.000000 
"/>
<path fill="none" opacity="1.000000" stroke="yellow" stroke-linecap="round" stroke-linejoin="round" stroke-width="2.000000"
	d="
M928.000000,103.000000 
	C925.442871,103.659798 926.007874,105.728783 926.007202,107.500000 
	C925.997009,136.500000 926.053650,165.500229 925.930359,194.499710 
	C925.915405,198.027557 926.973633,199.072769 930.500122,199.067368 
	C991.499939,198.973801 1052.500000,198.973816 1113.499878,199.067368 
	C1117.026367,199.072784 1118.084595,198.027557 1118.069702,194.499710 
	C1117.946411,165.500229 1117.946289,136.499771 1118.069580,107.500298 
	C1118.084595,103.972443 1117.036133,102.821548 1113.497803,102.928627 
	C1105.838257,103.160408 1098.161743,103.160400 1090.502197,102.928612 
	C1086.963867,102.821548 1085.898804,103.970726 1085.928589,107.500603 
	C1086.082397,125.665970 1085.884277,143.834641 1086.090088,161.998978 
	C1086.135376,166.000000 1084.996094,167.101227 1080.999634,167.086655 
	C1041.666870,166.943146 1002.333130,166.943161 963.000305,167.086670 
	C959.003967,167.101242 957.863831,166.000076 957.909790,161.998962 
	C958.116577,144.001343 957.883423,125.998657 958.090210,108.001038 
	C958.136108,103.999931 957.009521,102.764145 952.996765,102.910858 
	C944.840942,103.209038 936.666687,103.000000 928.500000,103.000000 
"/>
</svg>